<svg width="800" height="800" viewBox="0 0 800 800" fill="none" xmlns="http://www.w3.org/2000/svg">
<path d="M73.4516 766.513L84.1285 723.871L54.6861 712.247L34.4622 745.577C34.4622 745.577 45.6124 775.821 33.2284 799.998C33.2381 800 48.7343 773.605 73.4516 766.513ZM53.672 746.946C57.2962 745.461 61.4733 747.156 62.9703 750.715C64.4793 754.274 62.7602 758.372 59.136 759.856C55.5119 761.341 51.3348 759.646 49.8378 756.087C48.3142 752.514 50.0358 748.417 53.672 746.946Z" fill="#BC4D13"/>
<path d="M382.344 271.924C297.559 341.462 186.561 484.7 92.4271 652.022L92.374 651.957L75.9192 680.994L93.4654 687.745L102.737 663.317C152.956 572.795 289.195 336.393 538.306 179.328C538.306 179.328 631.05 124.091 722.427 47.6985C700.18 66.295 656.291 89.6046 632.494 104.642C570.035 144.105 492.96 181.192 382.344 271.924Z" fill="#BC4D13"/>
<path d="M80.1616 520C60.8818 588.144 61.9852 640.044 69.446 654.306H81.1081C113.31 587.606 268.406 345.991 364.943 270.362C464.961 191.999 542.114 146.403 607.004 113.151C629.79 101.477 653.164 85.6642 674.243 69.813C699.839 49.6277 725.788 28.0372 748.508 6.9079L682.648 50.101L712.013 5.18635L655.948 62.1952L692.431 0C606.123 7.78677 526.029 50.9678 526.029 50.9678C493.986 88.9745 468.18 149.436 468.18 149.436C467.286 119.204 487.761 73.4251 487.761 73.4251C472.632 80.333 415.15 113.165 415.15 113.165C387.033 136.489 378.3 197.818 378.3 197.818C372.954 173.627 391.642 126.993 391.642 126.993C310.653 173.641 252.803 253.105 252.803 253.105C212.761 331.705 245.685 393.033 233.222 378.35C220.758 363.668 223.438 310.114 223.438 310.114C138.89 391.314 129.999 430.173 129.999 430.173C115.763 464.724 103.3 557.152 103.3 557.152C95.2884 548.51 103.3 500.143 103.3 500.143C82.8272 543.336 92.6228 583.928 92.6228 583.928C82.8393 580.464 80.1616 520 80.1616 520Z" fill="#BC4D13"/>
<path d="M748.52 34.2642C748.52 34.2642 715.966 65.8097 674.255 97.1692C608.868 148.741 545.91 190.898 545.91 190.898C299.266 336.642 161.832 574.488 116.408 656.04H140.558C149.093 649.197 161.912 644.037 215.441 628.541C283.074 608.96 323.418 568.08 323.418 568.08C323.418 568.08 261.72 602.631 232.645 599.178C203.569 595.726 164.5 606.663 164.5 606.663C164.5 606.663 149.581 599.755 223.151 588.815C296.721 577.875 417.75 495.533 417.75 495.533C417.75 495.533 371.471 514.536 350.118 512.802C328.764 511.068 275.958 512.802 275.958 512.802C310.957 504.737 343.591 509.349 396.988 489.19C450.385 469.032 447.417 470.765 447.417 470.765C507.932 450.607 533.069 387.847 533.069 387.847C522.602 391.879 442.663 401.662 409.505 391.879C376.344 382.095 319.849 391.879 319.849 391.879C373.246 374.031 385.118 382.095 398.159 381.518C411.212 380.941 453.342 384.394 536.998 355.608C620.653 326.822 644.383 291.114 644.383 291.114L587.966 298.652C624.804 292.454 666.328 268.08 666.328 268.08C640.812 274.988 601.059 278.441 601.059 278.441C647.93 268.08 674.038 253.685 674.038 253.685C717.941 220.287 728.026 170.766 728.026 170.766C665.725 192.066 616.49 182.283 616.49 182.283C701.932 176.532 725.662 154.639 737.52 149.465C749.392 144.279 754.277 122.833 754.277 122.833C711.11 138.382 662.163 140.968 662.163 140.968C715.113 132.761 760.487 105.982 760.487 105.982V79.1763C740.014 90.8384 703.99 99.9121 703.99 99.9121L760.052 63.639C763.203 45.4916 748.52 34.2642 748.52 34.2642Z" fill="#BC4D13"/>
<path d="M56.864 701.585L90.2083 714.942L96.4184 700.18L63.0765 686.825L56.864 701.585Z" fill="#BC4D13"/>
<path d="M427.454 689.239C317.285 742.204 211.448 778.306 70.6918 783.033C57.5593 783.48 57.4941 796.612 70.6918 796.166C196.608 791.938 301.381 764.871 402.423 717.513C514.982 664.747 618.364 620.53 759.354 605.504C772.356 604.111 766.827 591.466 753.917 592.845C629.053 606.164 527.603 641.097 427.454 689.239Z" fill="#BC4D13"/>
</svg>
